<?xml version="1.0" encoding="UTF-8"?><!DOCTYPE svg PUBLIC "-//W3C//DTD SVG 1.1//EN" "http://www.w3.org/Graphics/SVG/1.1/DTD/svg11.dtd"><svg xmlns="http://www.w3.org/2000/svg" xmlns:xlink="http://www.w3.org/1999/xlink"><defs>
<linearGradient id="paint0_linear_4049_408" x1="-0.0331467" y1="-3.74999" x2="17.6933" y2="27.796" gradientUnits="userSpaceOnUse">
<stop stop-color="#00D5C7"/>
<stop offset="1" stop-color="#FFEE57"/>
</linearGradient>
</defs><symbol id="btn_close" viewBox="0 0 32 32">
<path fill-rule="evenodd" clip-rule="evenodd" d="M24.7071 8.70711C25.0976 8.31658 25.0976 7.68342 24.7071 7.29289C24.3166 6.90237 23.6834 6.90237 23.2929 7.29289L16 14.5858L8.70711 7.29289C8.31658 6.90237 7.68342 6.90237 7.29289 7.29289C6.90237 7.68342 6.90237 8.31658 7.29289 8.70711L14.5858 16L7.29289 23.2929C6.90237 23.6834 6.90237 24.3166 7.29289 24.7071C7.68342 25.0976 8.31658 25.0976 8.70711 24.7071L16 17.4142L23.2929 24.7071C23.6834 25.0976 24.3166 25.0976 24.7071 24.7071C25.0976 24.3166 25.0976 23.6834 24.7071 23.2929L17.4142 16L24.7071 8.70711Z" fill="#000B26" fill-opacity="0.72"/>
</symbol><symbol id="cost" viewBox="0 0 25 24">
<rect x="0.333496" width="24" height="24" rx="12" fill="url(#paint0_linear_4049_408)"/>
<path d="M8.3335 18H16.3335V16.1777H10.5484V12.9023H15.8738V11.0801H10.5484V7.82227H16.2857V6H8.3335V18Z" fill="white"/>
<rect x="11.3335" y="4" width="2" height="2" fill="white"/>
<rect x="11.3335" y="18" width="2" height="2" fill="white"/>

</symbol><symbol id="email" viewBox="0 0 20 16">
<path fill-rule="evenodd" clip-rule="evenodd" d="M3 1.5H17C17.6497 1.5 18.203 1.91311 18.4114 2.49099L11.2481 7.26656C10.4923 7.77041 9.5077 7.77041 8.75192 7.26656L1.58857 2.49099C1.79701 1.91311 2.35026 1.5 3 1.5ZM1.5 4.23472V13C1.5 13.8284 2.17157 14.5 3 14.5H17C17.8284 14.5 18.5 13.8284 18.5 13V4.23472L12.0801 8.51464C10.8205 9.35439 9.1795 9.35439 7.91987 8.51464L1.5 4.23472ZM0 3C0 1.34315 1.34315 0 3 0H17C18.6569 0 20 1.34315 20 3V13C20 14.6569 18.6569 16 17 16H3C1.34315 16 0 14.6569 0 13V3Z" fill="#000B26" fill-opacity="0.32"/>
</symbol><symbol id="exit" viewBox="0 0 24 24">
<path fill-rule="evenodd" clip-rule="evenodd" d="M6.75 2.25C4.67893 2.25 3 3.92893 3 6V18C3 20.0711 4.67893 21.75 6.75 21.75H12.75C14.8211 21.75 16.5 20.0711 16.5 18V17C16.5 16.5858 16.1642 16.25 15.75 16.25C15.3358 16.25 15 16.5858 15 17V18C15 19.2426 13.9926 20.25 12.75 20.25H6.75C5.50736 20.25 4.5 19.2426 4.5 18V6C4.5 4.75736 5.50736 3.75 6.75 3.75H12.75C13.9926 3.75 15 4.75736 15 6V7C15 7.41421 15.3358 7.75 15.75 7.75C16.1642 7.75 16.5 7.41421 16.5 7V6C16.5 3.92893 14.8211 2.25 12.75 2.25H6.75ZM11.7803 9.53033C12.0732 9.23744 12.0732 8.76256 11.7803 8.46967C11.4874 8.17678 11.0126 8.17678 10.7197 8.46967L7.71967 11.4697C7.42678 11.7626 7.42678 12.2374 7.71967 12.5303L10.7197 15.5303C11.0126 15.8232 11.4874 15.8232 11.7803 15.5303C12.0732 15.2374 12.0732 14.7626 11.7803 14.4697L10.0607 12.75H20.25C20.6642 12.75 21 12.4142 21 12C21 11.5858 20.6642 11.25 20.25 11.25H10.0607L11.7803 9.53033Z" fill="#000B26" fill-opacity="0.72"/>
</symbol><symbol id="location" viewBox="0 0 24 24">
<path fill-rule="evenodd" clip-rule="evenodd" d="M12 12C13.1046 12 14 11.1046 14 10C14 8.89543 13.1046 8 12 8C10.8954 8 10 8.89543 10 10C10 11.1046 10.8954 12 12 12ZM12 13.5C13.933 13.5 15.5 11.933 15.5 10C15.5 8.067 13.933 6.5 12 6.5C10.067 6.5 8.5 8.067 8.5 10C8.5 11.933 10.067 13.5 12 13.5Z" fill="#000B26" fill-opacity="0.72"/>
<path fill-rule="evenodd" clip-rule="evenodd" d="M16.1185 16.1287C17.4819 14.3107 18.5 12.159 18.5 9.80488C18.5 6.35749 15.625 3.5 12 3.5C8.37502 3.5 5.5 6.35749 5.5 9.80488C5.5 12.159 6.51813 14.3107 7.88146 16.1287C9.24149 17.9424 10.8671 19.3181 11.8832 20.0846C11.9274 20.118 11.9675 20.1275 12 20.1275C12.0325 20.1275 12.0726 20.118 12.1168 20.0846C13.1329 19.3181 14.7585 17.9424 16.1185 16.1287ZM13.0201 21.2821C15.1763 19.6555 20 15.392 20 9.80488C20 5.49436 16.4183 2 12 2C7.58172 2 4 5.49436 4 9.80488C4 15.392 8.82374 19.6555 10.9799 21.2821C11.5904 21.7427 12.4096 21.7427 13.0201 21.2821Z" fill="#000B26" fill-opacity="0.72"/>
</symbol><symbol id="next_additions" viewBox="0 0 48 48">
<path d="M0 8C0 3.58172 3.58172 0 8 0H40C44.4183 0 48 3.58172 48 8V40C48 44.4183 44.4183 48 40 48H8C3.58172 48 0 44.4183 0 40V8Z" fill="#3E5072" fill-opacity="0.08"/>
<path fill-rule="evenodd" clip-rule="evenodd" d="M20.4697 17.4697C20.7626 17.1768 21.2374 17.1768 21.5303 17.4697L27.5303 23.4697C27.8232 23.7626 27.8232 24.2374 27.5303 24.5303L21.5303 30.5303C21.2374 30.8232 20.7626 30.8232 20.4697 30.5303C20.1768 30.2374 20.1768 29.7626 20.4697 29.4697L25.9393 24L20.4697 18.5303C20.1768 18.2374 20.1768 17.7626 20.4697 17.4697Z" fill="#000B26" fill-opacity="0.72"/>
</symbol><symbol id="next" viewBox="0 0 8 14">
<path fill-rule="evenodd" clip-rule="evenodd" d="M0.46967 0.46967C0.762563 0.176777 1.23744 0.176777 1.53033 0.46967L7.53033 6.46967C7.82322 6.76256 7.82322 7.23744 7.53033 7.53033L1.53033 13.5303C1.23744 13.8232 0.762563 13.8232 0.46967 13.5303C0.176777 13.2374 0.176777 12.7626 0.46967 12.4697L5.93934 7L0.46967 1.53033C0.176777 1.23744 0.176777 0.762563 0.46967 0.46967Z" fill="#000B26" fill-opacity="0.72"/>
</symbol><symbol id="phone" viewBox="0 0 20 20">
<path fill-rule="evenodd" clip-rule="evenodd" d="M4.5325 1.61307C4.21421 1.83674 3.73913 2.23444 3.16024 2.91438C2.48981 3.70184 2.08498 4.63876 2.10421 5.58059C2.14871 7.76028 3.15893 10.8115 6.17459 13.8272C9.26116 16.9138 12.3229 17.9083 14.4923 17.9154C15.3875 17.9183 16.2749 17.529 17.0295 16.8935C17.7348 16.2994 18.15 15.8033 18.3836 15.471C18.3777 15.4582 18.3641 15.4364 18.3347 15.4129L15.0179 12.7594C14.9184 12.6798 14.775 12.6878 14.685 12.7779L14.052 13.4108C13.1895 14.2733 11.803 14.5045 10.7311 13.7711C8.89575 12.5154 7.42306 11.0092 6.22991 9.26966C5.49172 8.1934 5.72445 6.79816 6.59617 5.93396L7.22085 5.31467C7.31161 5.2247 7.3199 5.08075 7.24006 4.98096L4.57993 1.6558C4.56428 1.63624 4.54884 1.6234 4.53671 1.61564C4.53523 1.6147 4.53383 1.61384 4.5325 1.61307ZM2.01811 1.94199C2.68646 1.15697 3.264 0.667714 3.6962 0.367538C4.43833 -0.147887 5.30361 0.15923 5.75124 0.718759L8.41136 4.04391C8.97022 4.74248 8.91222 5.75008 8.2769 6.37992L7.65223 6.9992C7.23923 7.40864 7.18185 8.00562 7.4669 8.42122C8.55917 10.0137 9.90134 11.3859 11.5781 12.5331C11.9903 12.8151 12.5824 12.7591 12.9913 12.3501L13.6243 11.7172C14.2548 11.0867 15.2586 11.0311 15.9549 11.5881L19.2718 14.2416C19.8409 14.6969 20.1415 15.5735 19.622 16.3176C19.3114 16.7624 18.8047 17.3594 17.9958 18.0407C17.0433 18.8429 15.8239 19.4198 14.4874 19.4154C11.8678 19.4068 8.43986 18.2138 5.11393 14.8879C1.85533 11.6293 0.657769 8.21959 0.604523 5.61121C0.576034 4.21564 1.17298 2.93464 2.01811 1.94199Z" fill="#000B26" fill-opacity="0.32"/>
</symbol><symbol id="prev" viewBox="0 0 8 14">
<path fill-rule="evenodd" clip-rule="evenodd" d="M7.53033 13.5303C7.23744 13.8232 6.76256 13.8232 6.46967 13.5303L0.46967 7.53033C0.176777 7.23744 0.176777 6.76256 0.46967 6.46967L6.46967 0.469669C6.76256 0.176776 7.23744 0.176776 7.53033 0.469669C7.82322 0.762563 7.82322 1.23744 7.53033 1.53033L2.06066 7L7.53033 12.4697C7.82322 12.7626 7.82322 13.2374 7.53033 13.5303Z" fill="#000B26" fill-opacity="0.72"/>
</symbol></svg>