<svg width="48" height="48" viewBox="0 0 48 48" fill="none" xmlns="http://www.w3.org/2000/svg">
<path d="M0 8C0 3.58172 3.58172 0 8 0H40C44.4183 0 48 3.58172 48 8V40C48 44.4183 44.4183 48 40 48H8C3.58172 48 0 44.4183 0 40V8Z" fill="#3E5072" fill-opacity="0.08"/>
<path fill-rule="evenodd" clip-rule="evenodd" d="M20.4697 17.4697C20.7626 17.1768 21.2374 17.1768 21.5303 17.4697L27.5303 23.4697C27.8232 23.7626 27.8232 24.2374 27.5303 24.5303L21.5303 30.5303C21.2374 30.8232 20.7626 30.8232 20.4697 30.5303C20.1768 30.2374 20.1768 29.7626 20.4697 29.4697L25.9393 24L20.4697 18.5303C20.1768 18.2374 20.1768 17.7626 20.4697 17.4697Z" fill="#000B26" fill-opacity="0.72"/>
</svg>
